<mxfile host="app.diagrams.net" modified="2023-12-22T02:19:48.025Z" agent="Mozilla/5.0 (Windows NT 10.0; Win64; x64) AppleWebKit/537.36 (KHTML, like Gecko) Chrome/120.0.0.0 Safari/537.36" etag="cLlNg_C6Jd2tTnBlzigg" version="22.1.11" type="github">
  <diagram name="Page-1" id="03018318-947c-dd8e-b7a3-06fadd420f32">
    <mxGraphModel dx="1870" dy="1070" grid="1" gridSize="10" guides="1" tooltips="1" connect="1" arrows="1" fold="1" page="1" pageScale="1" pageWidth="1100" pageHeight="850" background="#ffffff" math="0" shadow="0">
      <root>
        <mxCell id="0" />
        <mxCell id="1" parent="0" />
        <mxCell id="OE62HvIVYR0HcSAKffHG-18" value="" style="whiteSpace=wrap;html=1;rounded=0;shadow=0;labelBackgroundColor=none;strokeColor=#000000;strokeWidth=1;fillColor=none;fontFamily=Verdana;fontSize=12;fontColor=#000000;align=center;comic=1;" vertex="1" parent="1">
          <mxGeometry x="60" y="20" width="950" height="720" as="geometry" />
        </mxCell>
        <mxCell id="OE62HvIVYR0HcSAKffHG-19" value="LMS LOGO" style="whiteSpace=wrap;html=1;rounded=0;shadow=0;labelBackgroundColor=none;strokeWidth=1;fontFamily=Verdana;fontSize=28;align=center;comic=1;" vertex="1" parent="1">
          <mxGeometry x="420" y="60" width="190" height="50" as="geometry" />
        </mxCell>
        <mxCell id="OE62HvIVYR0HcSAKffHG-20" value="" style="line;strokeWidth=1;html=1;rounded=0;shadow=0;labelBackgroundColor=none;fillColor=none;fontFamily=Verdana;fontSize=14;fontColor=#000000;align=center;comic=1;" vertex="1" parent="1">
          <mxGeometry x="80" y="140" width="920" height="10" as="geometry" />
        </mxCell>
        <mxCell id="OE62HvIVYR0HcSAKffHG-21" value="" style="whiteSpace=wrap;html=1;rounded=0;shadow=0;labelBackgroundColor=none;strokeWidth=1;fillColor=none;fontFamily=Verdana;fontSize=12;align=center;comic=1;" vertex="1" parent="1">
          <mxGeometry x="80" y="170" width="910" height="50" as="geometry" />
        </mxCell>
        <mxCell id="OE62HvIVYR0HcSAKffHG-22" value="Greeting" style="text;html=1;points=[];align=left;verticalAlign=top;spacingTop=-4;fontSize=14;fontFamily=Verdana" vertex="1" parent="1">
          <mxGeometry x="470" y="185" width="60" height="20" as="geometry" />
        </mxCell>
        <mxCell id="OE62HvIVYR0HcSAKffHG-23" value="" style="verticalLabelPosition=bottom;shadow=0;dashed=0;align=center;html=1;verticalAlign=top;strokeWidth=1;shape=mxgraph.mockup.graphics.simpleIcon;strokeColor=#999999;rounded=0;labelBackgroundColor=none;fontFamily=Verdana;fontSize=14;fontColor=#000000;comic=1;" vertex="1" parent="1">
          <mxGeometry x="200" y="280" width="640" height="330" as="geometry" />
        </mxCell>
        <mxCell id="OE62HvIVYR0HcSAKffHG-24" value="Title" style="text;html=1;points=[];align=left;verticalAlign=top;spacingTop=-4;fontSize=14;fontFamily=Verdana" vertex="1" parent="1">
          <mxGeometry x="490" y="240" width="60" height="20" as="geometry" />
        </mxCell>
        <mxCell id="OE62HvIVYR0HcSAKffHG-25" value="" style="rounded=1;whiteSpace=wrap;html=1;" vertex="1" parent="1">
          <mxGeometry x="445" y="660" width="140" height="50" as="geometry" />
        </mxCell>
        <mxCell id="OE62HvIVYR0HcSAKffHG-26" value="Action button" style="text;html=1;points=[];align=left;verticalAlign=top;spacingTop=-4;fontSize=14;fontFamily=Verdana" vertex="1" parent="1">
          <mxGeometry x="460" y="675" width="60" height="20" as="geometry" />
        </mxCell>
        <mxCell id="OE62HvIVYR0HcSAKffHG-27" value="Body" style="text;html=1;points=[];align=left;verticalAlign=top;spacingTop=-4;fontSize=14;fontFamily=Verdana" vertex="1" parent="1">
          <mxGeometry x="485" y="310" width="60" height="20" as="geometry" />
        </mxCell>
      </root>
    </mxGraphModel>
  </diagram>
</mxfile>
